<svg xmlns="http://www.w3.org/2000/svg" xmlns:xlink="http://www.w3.org/1999/xlink" x="0px" y="0px" width="64px" height="64px" viewBox="0 0 64 64"><g transform="translate(0, 0)"><path fill="#727273" d="M58,9H6c-2.757,0-5,2.243-5,5v36c0,2.757,2.243,5,5,5h52c2.757,0,5-2.243,5-5V14C63,11.243,60.757,9,58,9z
	 M40,42H24c-5.523,0-10-4.477-10-10c0-5.523,4.477-10,10-10h16c5.523,0,10,4.477,10,10C50,37.523,45.523,42,40,42z"></path>
<path data-color="color-2" fill="#727273" d="M24,24c-4.418,0-8,3.582-8,8s3.582,8,8,8s8-3.582,8-8S28.418,24,24,24z M22,36.578
	c-1.764-0.772-3-2.529-3-4.578s1.236-3.806,3-4.578V36.578z M26,36.578v-9.156c1.764,0.772,3,2.529,3,4.578S27.764,35.806,26,36.578
	z"></path></g></svg>