<svg xmlns="http://www.w3.org/2000/svg" xmlns:xlink="http://www.w3.org/1999/xlink" x="0px" y="0px" width="48px" height="48px" viewBox="0 0 48 48"><g transform="translate(0, 0)"><path fill="#0068AC" d="M44,7H4c-1.657,0-3,1.343-3,3v28c0,1.657,1.343,3,3,3h40c1.657,0,3-1.343,3-3V10C47,8.343,45.657,7,44,7z"></path>
<path fill="#FFFFFF" d="M21,20.142v7.716c1.721-0.447,3-2,3-3.858S22.721,20.589,21,20.142z"></path>
<path fill="#FFFFFF" d="M28,16h-8c-4.418,0-8,3.582-8,8s3.582,8,8,8h8c4.418,0,8-3.582,8-8S32.418,16,28,16z M20,30
	c-3.309,0-6-2.691-6-6s2.691-6,6-6s6,2.691,6,6S23.309,30,20,30z"></path>
<path fill="#FFFFFF" d="M19,20.142c-1.721,0.447-3,2-3,3.858s1.279,3.411,3,3.858V20.142z"></path></g></svg>