<svg width="120" height="31" xmlns="http://www.w3.org/2000/svg"><g fill="#FFF" fill-rule="evenodd"><path d="M22.48 7H3.478c-1.074 0-1.564.488-1.564 1.115s.514 1.069 1.19 1.742l6.444 6.411H1.19c-.746 0-1.19.418-1.19.93 0 .301.117.603.63 1.09l11.952 11.894c.49.51.84.627 1.121.627.49 0 .863-.349.863-.975V25.35c0-1.997-.35-2.74-1.61-4.134l-1.541-1.72c-.233-.255-.327-.394-.327-.603 0-.256.164-.441.397-.441.21 0 .35.116.56.348l9.641 9.57c.77.766 1.121 1.185 1.774 1.185.748 0 1.168-.558 1.168-1.51V9.137C24.628 7.674 23.764 7 22.48 7M43.801 18.774c0-1.191.536-1.875 1.47-1.875.932 0 1.468.684 1.468 1.875v1.59c0 1.192-.536 1.875-1.469 1.875s-1.469-.683-1.469-1.874v-1.591zm1.47-3.59c-2.258 0-3.66 1.451-3.66 3.788v1.194c0 2.337 1.402 3.788 3.66 3.788 2.256 0 3.658-1.45 3.658-3.788v-1.194c0-2.337-1.402-3.788-3.659-3.788zM56.906 12.77c-.18-.048-1.165-.24-2.372-.24-1.297 0-4.311.45-4.311 4.628v2.168c0 1.086.31 4.629 4.31 4.629 1.204 0 2.192-.193 2.373-.24l.004-.001c.132-.04.408-.126.408-.45v-.989c0-.27-.15-.426-.413-.426h-.04c-.322.028-1.44.2-2.302.2-1.367 0-2.031-.946-2.031-2.723v-2.168c0-1.802.645-2.723 2.031-2.723.834 0 1.888.165 2.312.2h.03c.263 0 .413-.155.413-.426v-.988c0-.325-.276-.41-.412-.452M75.52 15.184c-1.01 0-1.684.24-2.418.632-.389-.42-.98-.632-1.76-.632-.792 0-1.388.24-2.003.614v-.1a.413.413 0 0 0-.413-.41h-1.29a.413.413 0 0 0-.413.41v7.713c0 .23.19.426.414.426H69a.426.426 0 0 0 .413-.426v-6.087c.564-.295.973-.44 1.247-.44.701 0 .905.173.905 1.315v5.212c0 .23.19.426.414.426h1.363a.426.426 0 0 0 .414-.426v-5.212c0-.39-.017-.717-.05-.996a3.12 3.12 0 0 1 1.252-.318c.712 0 .95.19.95 1.314v5.212c0 .23.19.426.413.426h1.363a.426.426 0 0 0 .414-.426v-5.014c0-1.496-.293-3.213-2.577-3.213M95.783 16.9c.871 0 1.438.62 1.438 1.838h-2.906c0-1.219.579-1.839 1.468-1.839m0-1.715c-2.3 0-3.674 1.444-3.674 3.862v1.091c0 2.818 1.995 3.818 3.704 3.818 1.372 0 1.962-.081 2.894-.253.342-.056.41-.225.41-.498v-.973c0-.202-.155-.338-.385-.338h-.055c-.664.064-1.668.148-2.716.148-1.394 0-1.644-1.023-1.66-1.685h4.713c.154 0 .413-.062.413-.485v-.825c0-2.382-1.396-3.862-3.644-3.862M104.987 15.184c-.521 0-1.274.107-2.002.596v-.082a.413.413 0 0 0-.413-.41h-1.29a.413.413 0 0 0-.413.41v7.713c0 .23.19.426.413.426h1.364a.426.426 0 0 0 .413-.426v-6.056c.67-.34 1.25-.485 1.928-.485a.413.413 0 0 0 .414-.412v-.863a.413.413 0 0 0-.414-.411M111.346 15.38c-.177-.047-.84-.196-1.942-.196-2.156 0-3.495 1.418-3.495 3.7v1.37c0 2.283 1.339 3.7 3.495 3.7 1.102 0 1.762-.148 1.94-.195.296-.068.4-.199.4-.496v-.958c0-.202-.154-.338-.383-.338h-.06c-.571.072-.923.103-1.897.103-.853 0-1.305-.627-1.305-1.815v-1.371c0-1.188.452-1.816 1.305-1.816.973 0 1.325.031 1.912.103h.045c.23 0 .383-.135.383-.337v-.959c0-.297-.105-.427-.398-.496M60.654 18.774c0-1.191.535-1.875 1.469-1.875.933 0 1.468.684 1.468 1.875v1.59c0 1.192-.535 1.875-1.468 1.875-.934 0-1.47-.683-1.47-1.874v-1.591zm1.469-3.59c-2.257 0-3.66 1.451-3.66 3.788v1.194c0 2.337 1.403 3.788 3.66 3.788s3.659-1.45 3.659-3.788v-1.194c0-2.337-1.402-3.788-3.66-3.788zM88.09 15.184c-1.012 0-1.685.24-2.419.632-.389-.42-.98-.632-1.76-.632-.792 0-1.388.24-2.003.614v-.1a.413.413 0 0 0-.413-.41h-1.29a.413.413 0 0 0-.413.41v7.713c0 .23.19.426.414.426h1.363a.426.426 0 0 0 .413-.426v-6.087c.564-.295.973-.44 1.247-.44.701 0 .905.173.905 1.315v5.212c0 .23.19.426.414.426h1.363a.426.426 0 0 0 .414-.426v-5.212c0-.39-.017-.717-.05-.996a3.12 3.12 0 0 1 1.252-.318c.712 0 .95.19.95 1.314v5.212c0 .23.19.426.413.426h1.363a.426.426 0 0 0 .414-.426v-5.014c0-1.496-.293-3.213-2.577-3.213M116.34 16.9c.872 0 1.44.62 1.44 1.838h-2.907c0-1.219.578-1.839 1.468-1.839m0-1.715c-2.3 0-3.674 1.444-3.674 3.862v1.091c0 2.818 1.995 3.818 3.703 3.818 1.372 0 1.963-.081 2.895-.253.342-.056.409-.225.409-.498v-.973c0-.202-.155-.338-.384-.338h-.055c-.664.064-1.668.148-2.716.148-1.394 0-1.645-1.023-1.66-1.685h4.712c.155 0 .414-.062.414-.485v-.825c0-2.382-1.397-3.862-3.644-3.862M39.864 17.591h-3.158a.34.34 0 0 0-.341.34v1.073c0 .188.152.34.34.34h1.342v2.71c-.445.051-.795.111-1.583.111-.952 0-1.941-.896-1.941-2.854v-2.123c0-1.697.665-2.754 1.824-2.754 1.167 0 2.216.123 3.127.201h.044c.371 0 .414-.243.414-.426v-.988c0-.3-.2-.383-.378-.424a19.543 19.543 0 0 0-3.207-.268c-.69 0-4.133.225-4.133 4.659v2.123c0 3.666 2.596 4.643 4.25 4.643 1.608 0 2.499-.187 3.365-.36h.004c.244-.056.372-.218.372-.468v-5.195a.34.34 0 0 0-.341-.34"/><g><path d="M64.884 2.544c0 1.414-1.048 2.218-2.36 2.218h-1.568v2.005H60V.153h2.656c1.251 0 2.228.793 2.228 2.208v.183zm-2.31 1.363c.916 0 1.344-.671 1.344-1.434 0-.784-.367-1.466-1.272-1.466h-1.69v2.9h1.618zM72.24 3.582c0 1.984-1.414 3.337-3.235 3.337-1.832 0-3.246-1.353-3.246-3.337v-.244C65.759 1.353 67.194 0 69.005 0c1.79 0 3.236 1.353 3.236 3.338v.244zm-.966-.122c0-1.425-.783-2.585-2.28-2.585-1.505 0-2.268 1.16-2.268 2.585 0 1.424.824 2.584 2.279 2.584 1.465 0 2.27-1.16 2.27-2.584z" fill-rule="nonzero"/><path d="M77.816.153l1.19 4.518c.062.193.194.722.214.895h.02c.052-.173.164-.692.225-.895L80.767.153h.957v.152L79.78 6.767h-1.038l-1.465-5.363h-.02l-1.445 5.363h-1.038L72.83.305V.153h.957l1.302 4.518c.061.203.194.712.224.895h.02c.051-.173.153-.692.214-.895l1.19-4.518h1.08zM86.852.153v.854h-3.114v1.964h2.676v.855h-2.676v2.086h3.114v.855h-4.07V.153z"/><path d="M88.418 6.767V.153h2.544c1.18 0 2.126.681 2.126 1.943v.173c0 1.058-.722 1.69-1.668 1.883l1.902 2.462v.153h-1.098L90.3 4.263h-.926v2.504h-.956zm2.462-3.379c.845 0 1.242-.56 1.242-1.18 0-.661-.326-1.2-1.17-1.2h-1.577v2.38h1.505z" fill-rule="nonzero"/><path d="M98.674.153v.854h-3.113v1.964h2.676v.855H95.56v2.086h3.113v.855h-4.07V.153z"/><path d="M102.55.153c.988 0 1.792.305 2.392.905.519.52.845 1.354.845 2.3v.224c0 1.007-.377 1.8-.896 2.32-.529.529-1.404.865-2.34.865h-2.31V.153h2.31zm-1.353.854v4.905h1.272c.753 0 1.313-.183 1.67-.54.477-.477.68-1.119.68-1.902 0-.773-.213-1.435-.65-1.872-.397-.397-.937-.59-1.72-.59h-1.252zM112.695 3.327c.54.194 1.1.814 1.1 1.547v.061c0 1.231-.866 1.832-2.046 1.832H109V.153h2.442c1.14 0 2.036.519 2.036 1.73v.06c0 .682-.326 1.13-.784 1.364v.02zm-2.737-2.33v1.984h1.669c.671 0 .885-.57.885-1.058 0-.366-.183-.926-.956-.926h-1.598zm0 2.819v2.106h1.77c.937 0 1.1-.6 1.1-1.048 0-.417-.184-1.058-1.09-1.058h-1.78z" fill-rule="nonzero"/><path d="M116.551 6.767V4.182L114.12.305V.153h1.058l1.883 3.123 1.893-3.123h.987v.152l-2.422 3.877v2.585z"/></g></g></svg>
