<svg xmlns="http://www.w3.org/2000/svg" xmlns:xlink="http://www.w3.org/1999/xlink" x="0px" y="0px" width="64px" height="64px" viewBox="0 0 64 64"><g transform="translate(0, 0)"><circle data-color="color-2" cx="25" cy="32" r="10" fill="#727273" opacity="0.85"></circle>
<path d="M58,9H6a5.006,5.006,0,0,0-5,5V50a5.006,5.006,0,0,0,5,5H58a5.006,5.006,0,0,0,5-5V14A5.006,5.006,0,0,0,58,9ZM39,44a11.921,11.921,0,0,1-7-2.273,12,12,0,1,1,0-19.454A11.993,11.993,0,1,1,39,44Z" fill="#727273"></path>
<circle data-color="color-2" cx="39" cy="32" r="10" fill="#727273" opacity="0.5"></circle></g></svg>