<svg viewBox="0 0 494.502 251.029" fill="none" xmlns="http://www.w3.org/2000/svg">
<path d="M34.168 23.1704C37.814 17.2564 41.64 11.7254 44.731 5.81041C46.718 2.00741 49.157 0.052418 52.942 0.000418018C53.585 -0.00858198 64.51 0.131414 65.023 0.161414C65.543 0.192414 66.027 0.359419 66.389 0.915419C67.177 2.12742 66.03 2.89242 65.517 3.71042C58.762 14.4804 52.001 25.2464 45.136 35.9464C44.13 37.5144 44.144 38.6044 45.132 40.1444C52.329 51.3654 59.446 62.6384 66.553 73.9164C67.074 74.7424 68.199 75.5524 67.441 76.7144C66.762 77.7544 65.546 77.4694 64.507 77.4734C60.002 77.4874 55.495 77.3904 50.993 77.5174C48.764 77.5804 47.442 76.6994 46.298 74.8354C42.282 68.2904 38.126 61.8304 34.001 55.3524C33.59 54.7074 33.383 53.8684 32.445 53.5064C28.359 60.5124 24.209 67.4894 20.216 74.5544C19.193 76.3644 17.987 77.3424 16.151 77.5404C15.766 77.5824 2.78502 77.7234 1.94702 77.6404C1.33302 77.5794 0.794008 77.3304 0.445008 76.6404C-0.323992 75.1164 1.26003 73.9064 1.98703 72.6854C8.44203 61.8374 14.926 51.0064 21.5 40.2294C22.541 38.5224 22.658 37.3384 21.492 35.5514C14.545 24.9054 7.76301 14.1514 0.94101 3.42341C0.48801 2.71141 -0.346993 2.02542 0.156007 1.05442C0.556007 0.281419 1.24702 0.189418 1.96002 0.195418C2.22802 0.197418 16.836 0.154415 16.98 0.158415C18.967 0.205415 20.233 1.07342 21.289 2.77742C24.916 8.63142 28.627 14.4334 32.307 20.2544C32.867 21.1434 33.438 22.0284 34.168 23.1704Z" transform="translate(426.691 125.217)" fill="#727273"/>
<path d="M15.487 0.027537C17.118 0.122537 17.925 1.00753 18.411 2.85253C22.162 17.0915 26.039 31.2975 29.874 45.5135C30.861 49.1735 31.824 52.8405 32.843 56.4925C33.108 57.4435 33.02 58.8085 34.543 58.7695C36.037 58.7315 35.95 57.3425 36.203 56.4125C41.01 38.7145 45.819 21.0175 50.504 3.28654C51.13 0.91754 52.096 -0.12847 54.646 0.01253C58.256 0.21153 61.885 0.0525314 65.507 0.0655314C68.84 0.0785314 69.291 0.669528 68.399 3.82153C64.029 19.2665 59.652 34.7095 55.284 50.1555C53.845 55.2455 52.427 60.3425 51.002 65.4365C48.8 73.3105 42.574 78.2305 34.838 78.2085C26.189 78.1835 20.591 73.9195 18.177 65.5295C12.276 45.0205 6.37197 24.5125 0.467972 4.00453C-0.484028 0.697527 -0.154019 0.111531 3.06198 0.0655314C3.15198 0.0655314 15.254 0.013537 15.487 0.027537Z" transform="translate(224.975 125.507)" fill="#727273"/>
<path d="M0.0656928 39.6296C0.0656928 33.0946 -0.10432 26.5535 0.10268 20.0255C0.47568 8.25555 6.81167 1.64755 18.5017 0.421552C27.3467 -0.506448 36.1307 0.258555 44.9227 1.16755C47.3967 1.42355 48.5657 2.42255 48.3437 5.04955C48.1577 7.24155 48.3177 9.46255 48.3027 11.6706C48.2817 14.7456 47.8057 15.2456 44.7997 15.2526C37.9997 15.2676 31.1987 15.2366 24.3987 15.2656C19.4847 15.2866 17.8787 16.8166 17.6867 21.7116C17.5867 24.2696 17.7607 26.8396 17.6107 29.3926C17.5027 31.2326 18.0777 31.8186 19.9607 31.7956C27.9077 31.6986 35.8577 31.7476 43.8057 31.7576C47.0927 31.7616 47.4147 32.0986 47.4307 35.4316C47.4427 37.8166 47.3317 40.2065 47.4607 42.5835C47.5947 45.0495 46.4347 45.8676 44.1377 45.8546C36.1897 45.8076 28.2397 45.8995 20.2927 45.7925C18.2607 45.7655 17.4527 46.2496 17.5987 48.4166C17.7887 51.2306 17.6057 54.0666 17.6607 56.8916C17.7647 62.1846 19.4657 63.8836 24.7077 63.9076C31.4197 63.9376 38.1317 63.9056 44.8437 63.9196C47.9377 63.9256 48.3257 64.3306 48.3407 67.4656C48.3527 70.0266 48.3057 72.5886 48.3537 75.1486C48.3847 76.7696 47.6377 77.6276 46.0707 77.8216C36.2377 79.0366 26.3677 79.8996 16.5147 78.4006C6.25167 76.8386 0.618687 70.5085 0.159687 60.0275C-0.137313 53.2405 0.103687 46.4306 0.103687 39.6306C0.0926872 39.6296 0.0786928 39.6296 0.0656928 39.6296Z" transform="translate(368.216 124.456)" fill="#727273"/>
<path d="M37.6812 45.562C37.6812 54.835 37.6852 64.107 37.6792 73.38C37.6772 76.821 37.2062 77.27 33.6522 77.278C30.3852 77.285 27.1172 77.286 23.8502 77.278C20.2712 77.27 19.8592 76.876 19.8582 73.354C19.8522 54.897 19.7972 36.44 19.9202 17.984C19.9382 15.325 19.3162 14.486 16.5942 14.64C12.1932 14.888 7.76619 14.653 3.35219 14.729C1.03819 14.769 -0.0947866 13.945 0.00621336 11.482C0.126213 8.573 0.0582165 5.654 0.0282165 2.741C0.00921654 0.871001 0.849211 -0.000997273 2.74721 0.00100273C20.0562 0.0180027 37.3652 0.0190033 54.6742 3.27611e-06C56.7442 -0.00199672 57.4732 1.02701 57.4312 2.97901C57.3692 5.89201 57.3492 8.809 57.4372 11.721C57.5042 13.918 56.4612 14.732 54.3942 14.717C49.7142 14.684 45.0282 14.837 40.3552 14.651C38.0652 14.56 37.6062 15.345 37.6322 17.48C37.7472 26.84 37.6812 36.201 37.6812 45.562Z" transform="translate(302.504 125.416)" fill="#727273"/>
<path d="M202.87 4.67C199.423 1.167 195.106 -0.000999786 190.333 2.14237e-07C139.8 0.00900021 89.2666 0.00500345 38.7346 0.00800345C36.6996 0.00800345 34.6716 0.154999 32.7076 0.724999C22.8446 3.585 18.1666 14.305 22.8926 23.649C27.5536 32.864 32.4286 41.971 37.2836 51.086C38.1916 52.79 38.0726 53.296 35.9976 53.274C27.6056 53.188 19.2126 53.197 10.8196 53.251C1.94464 53.308 -2.59436 60.989 1.54664 68.873C3.80464 73.172 6.10264 77.45 8.37164 81.743C22.3546 108.197 36.3506 134.643 50.2956 161.118C52.3996 165.113 55.4176 167.741 60.0176 167.761C64.7346 167.781 67.8186 165.136 69.9066 160.987C72.8036 155.233 75.8976 149.577 78.9216 143.887C80.1136 141.644 81.3426 139.422 82.5706 137.162C83.5376 137.79 83.7416 138.693 84.1436 139.45C89.2366 149.037 94.3236 158.627 99.3816 168.233C100.466 170.291 101.772 172.154 103.57 173.638C111.635 180.294 123.017 177.96 128.084 168.459C147.025 132.943 165.905 97.394 184.799 61.853C191.594 49.072 198.387 36.289 205.144 23.488C208.689 16.771 207.805 9.685 202.87 4.67ZM121.97 62.967C110.982 83.613 99.9426 104.231 88.9646 124.882C87.6016 127.445 85.6726 129.078 82.7526 129.114C79.7036 129.152 77.7126 127.444 76.3136 124.802C65.4876 104.37 54.7396 83.895 43.7006 63.579C40.6856 58.031 44.3166 52.973 49.9446 53.161C60.9736 53.53 72.0246 53.269 83.0656 53.269C94.1066 53.269 105.149 53.259 116.191 53.273C122.459 53.282 124.937 57.394 121.97 62.967Z" transform="translate(1.67725 73.598)" fill="#727273"/>
<path d="M40.295 19.728C40.295 31.397 31.648 38.029 20.819 38.029H7.891V54.567H0V-5.62668e-08H21.91C32.236 -5.62668e-08 40.295 6.548 40.295 18.217V19.728ZM21.239 30.977C28.794 30.977 32.32 25.436 32.32 19.14C32.32 12.676 29.297 7.051 21.826 7.051H7.891V30.976H21.239V30.977Z" transform="translate(0 1.25897)" fill="#727273"/>
<path d="M53.475 29.55C53.475 45.92 41.806 57.085 26.78 57.085C11.669 57.085 1.58691e-06 45.92 1.58691e-06 29.55V27.535C1.58691e-06 11.165 11.836 0 26.78 0C41.555 0 53.475 11.165 53.475 27.535V29.55V29.55ZM45.5 28.542C45.5 16.789 39.036 7.219 26.695 7.219C14.271 7.219 7.975 16.789 7.975 28.542C7.975 40.295 14.775 49.865 26.78 49.865C38.867 49.865 45.5 40.295 45.5 28.542Z" transform="translate(47.5112)" fill="#727273"/>
<path d="M41.133 -5.62668e-08L50.955 37.273C51.458 38.868 52.55 43.233 52.718 44.66H52.886C53.306 43.233 54.228 38.952 54.733 37.273L65.479 -5.62668e-08H73.369V1.259L57.336 54.566H48.773L36.684 10.325H36.516L24.595 54.566H16.032L-2.0752e-06 1.259V-5.62668e-08H7.89L18.635 37.273C19.139 38.952 20.23 43.149 20.483 44.66H20.651C21.071 43.233 21.91 38.952 22.413 37.273L32.235 -5.62668e-08H41.133V-5.62668e-08Z" transform="translate(105.851 1.25897)" fill="#727273"/>
<path d="M33.579 -5.62668e-08V7.051H7.89101V23.253H29.969V30.305H7.89101V47.514H33.579V54.566H-8.54492e-07V-5.62668e-08H33.579Z" transform="translate(187.946 1.25897)" fill="#727273"/>
<path d="M-1.95313e-06 54.566V-5.62668e-08H20.987C30.725 -5.62668e-08 38.532 5.624 38.532 16.034V17.461C38.532 26.192 32.572 31.396 24.765 32.991L40.462 53.306V54.565H31.396L15.53 33.914H7.891V54.565H-1.95313e-06V54.566ZM20.315 26.696C27.283 26.696 30.557 22.079 30.557 16.958C30.557 11.501 27.87 7.052 20.903 7.052H7.892V26.696H20.315Z" transform="translate(234.448 1.25897)" fill="#727273"/>
<path d="M33.579 -5.62668e-08V7.051H7.89101V23.253H29.969V30.305H7.89101V47.514H33.579V54.566H-1.46484e-05V-5.62668e-08H33.579Z" transform="translate(285.485 1.25897)" fill="#727273"/>
<path d="M19.055 -5.62668e-08C27.198 -5.62668e-08 33.83 2.518 38.783 7.471C43.065 11.752 45.751 18.636 45.751 26.443V28.29C45.751 36.601 42.645 43.149 38.364 47.43C33.999 51.795 26.779 54.566 19.056 54.566H6.5918e-06V-5.62668e-08H19.055ZM7.88999 7.052V47.515H18.384C24.596 47.515 29.213 46.004 32.151 43.066C36.097 39.121 37.775 33.832 37.775 27.368C37.775 20.988 36.012 15.531 32.402 11.921C29.128 8.647 24.679 7.052 18.215 7.052H7.88999V7.052Z" transform="translate(331.988 1.25897)" fill="#727273"/>
<path d="M30.473 26.192C34.923 27.787 39.54 32.908 39.54 38.952V39.456C39.54 49.614 32.404 54.567 22.666 54.567H-1.36719e-05V-5.62668e-08H20.147C29.55 -5.62668e-08 36.937 4.281 36.937 14.271V14.775C36.937 20.4 34.25 24.093 30.473 26.024V26.192ZM7.89201 6.968V23.338H21.659C27.2 23.338 28.963 18.637 28.963 14.607C28.963 11.585 27.452 6.968 21.072 6.968H7.89201ZM7.89201 30.221V47.598H22.499C30.222 47.598 31.566 42.645 31.566 38.951C31.566 35.509 30.055 30.22 22.584 30.22H7.89201V30.221Z" transform="translate(404.261 1.25897)" fill="#727273"/>
<path d="M20.063 54.566V33.244L8.78906e-06 1.259V-5.62668e-08H8.72999L24.261 25.772L39.875 -5.62668e-08H48.018V1.259L28.039 33.243V54.566H20.063Z" transform="translate(446.484 1.25897)" fill="#727273"/>
</svg>
